<?xml version="1.0" encoding="utf-8"?>

<svg xmlns="http://www.w3.org/2000/svg">
  <defs>
    <symbol
      id="angular-icon"
      viewBox="0 0 24 24"
      fill="none"
      stroke="currentColor"
      stroke-linecap="round"
      stroke-linejoin="round"
    >
      <path stroke="none" d="M0 0h24v24H0z" fill="none"></path>
      <path
        d="M5.428 17.245l6.076 3.471a1 1 0 0 0 .992 0l6.076 -3.471a1 1 0 0 0 .495 -.734l1.323 -9.704a1 1 0 0 0 -.658 -1.078l-7.4 -2.612a1 1 0 0 0 -.665 0l-7.399 2.613a1 1 0 0 0 -.658 1.078l1.323 9.704a1 1 0 0 0 .495 .734l0 -.001"
      ></path>
      <path d="M9 15l3 -8l3 8"></path>
      <path d="M10 13h4"></path>
    </symbol>

    <symbol
      id="astro-icon"
      viewBox="0 0 24 24"
      fill="none"
      stroke="currentColor"
      stroke-linecap="round"
      stroke-linejoin="round"
    >
      <path stroke="none" d="M0 0h24v24H0z" fill="none"></path>
      <path
        d="M14.972 3.483c.163 .196 .247 .46 .413 .987l3.64 11.53a15.5 15.5 0 0 0 -4.352 -1.42l-2.37 -7.723a.31 .31 0 0 0 -.296 -.213a.31 .31 0 0 0 -.295 .214l-2.342 7.718a15.5 15.5 0 0 0 -4.37 1.422l3.657 -11.53c.168 -.527 .251 -.79 .415 -.986c.144 -.172 .331 -.306 .544 -.388c.242 -.094 .527 -.094 1.099 -.094h2.612c.572 0 .858 0 1.1 .094c.213 .082 .4 .217 .545 .39"
      ></path>
      <path d="M9 18c0 1.5 2 3 3 4c1 -1 3 -3 3 -4q -3 1.5 -6 0"
      ></path>
    </symbol>

    <symbol
      id="bootstrap-icon"
      viewBox="0 0 24 24"
      fill="none"
      stroke="currentColor"
      stroke-linecap="round"
      stroke-linejoin="round"
    >
      <path stroke="none" d="M0 0h24v24H0z" fill="none"></path>
      <path
        d="M2 12a2 2 0 0 0 2 -2v-4a2 2 0 0 1 2 -2h12a2 2 0 0 1 2 2v4a2 2 0 0 0 2 2"
      ></path>
      <path
        d="M2 12a2 2 0 0 1 2 2v4a2 2 0 0 0 2 2h12a2 2 0 0 0 2 -2v-4a2 2 0 0 1 2 -2"
      ></path>
      <path d="M9 16v-8h3.5a2 2 0 1 1 0 4h-3.5h4a2 2 0 1 1 0 4h-4"
      ></path>
    </symbol>

    <symbol
      id="css-icon"
      viewBox="0 0 24 24"
      fill="none"
      stroke="currentColor"
      stroke-linecap="round"
      stroke-linejoin="round"
    >
      <path stroke="none" d="M0 0h24v24H0z" fill="none"></path>
      <path
        d="M20 4l-2 14.5l-6 2l-6 -2l-2 -14.5l16 0"></path>
      <path
        d="M8.5 8h7l-4.5 4h4l-.5 3.5l-2.5 .75l-2.5 -.75l-.1 -.5"></path>
    </symbol>

    <symbol
      id="github-icon"
      viewBox="0 0 24 24"
      fill="none"
      stroke="currentColor"
      stroke-linecap="round"
      stroke-linejoin="round"
    >
      <path stroke="none" d="M0 0h24v24H0z" fill="none"></path>
      <path
        d="M9 19c-4.3 1.4 -4.3 -2.5 -6 -3m12 5v-3.5c0 -1 .1 -1.4 -.5 -2c2.8 -.3 5.5 -1.4 5.5 -6a4.6 4.6 0 0 0 -1.3 -3.2a4.2 4.2 0 0 0 -.1 -3.2s-1.1 -.3 -3.5 1.3a12.3 12.3 0 0 0 -6.2 0c-2.4 -1.6 -3.5 -1.3 -3.5 -1.3a4.2 4.2 0 0 0 -.1 3.2a4.6 4.6 0 0 0 -1.3 3.2c0 4.6 2.7 5.7 5.5 6c-.6 .6 -.6 1.2 -.5 2v3.5"
      ></path>
    </symbol>

    <symbol
      id="html-icon"
      viewBox="0 0 24 24"
      fill="none"
      stroke="currentColor"
      stroke-linecap="round"
      stroke-linejoin="round"
    >
      <path stroke="none" d="M0 0h24v24H0z" fill="none"></path>
      <path
        d="M20 4l-2 14.5l-6 2l-6 -2l-2 -14.5l16 0"></path>
      <path
        d="M15.5 8h-7l.5 4h6l-.5 3.5l-2.5 .75l-2.5 -.75l-.1 -.5"></path>
    </symbol>

    <symbol
      id="javascript-icon"
      viewBox="0 0 24 24"
      fill="none"
      stroke="currentColor"
      stroke-linecap="round"
      stroke-linejoin="round"
    >
      <path stroke="none" d="M0 0h24v24H0z" fill="none"></path>
      <path
        d="M20 4l-2 14.5l-6 2l-6 -2l-2 -14.5l16 0"></path>
      <path
        d="M7.5 8h3v8l-2 -1"></path>
      <path
        d="M16.5 8h-2.5a.5 .5 0 0 0 -.5 .5v3a.5 .5 0 0 0 .5 .5h1.423a.5 .5 0 0 1 .495 .57l-.418 2.93l-2 .5"
      ></path>
    </symbol>

    <symbol
      id="tailwindcss-icon"
      viewBox="0 0 24 24"
      fill="none" stroke="currentColor"
      stroke-linecap="round" stroke-linejoin="round">
      <path stroke="none" d="M0 0h24v24H0z" fill="none" />
      <path
        d="M11.667 6c-2.49 0 -4.044 1.222 -4.667 3.667c.933 -1.223 2.023 -1.68 3.267 -1.375c.71 .174 1.217 .68 1.778 1.24c.916 .912 2 1.968 4.288 1.968c2.49 0 4.044 -1.222 4.667 -3.667c-.933 1.223 -2.023 1.68 -3.267 1.375c-.71 -.174 -1.217 -.68 -1.778 -1.24c-.916 -.912 -1.975 -1.968 -4.288 -1.968m-4 6.5c-2.49 0 -4.044 1.222 -4.667 3.667c.933 -1.223 2.023 -1.68 3.267 -1.375c.71 .174 1.217 .68 1.778 1.24c.916 .912 1.975 1.968 4.288 1.968c2.49 0 4.044 -1.222 4.667 -3.667c-.933 1.223 -2.023 1.68 -3.267 1.375c-.71 -.174 -1.217 -.68 -1.778 -1.24c-.916 -.912 -1.975 -1.968 -4.288 -1.968" />
    </symbol>

    <symbol
      id="typescript-icon"
      viewBox="0 0 24 24"
      fill="none"
      stroke="currentColor"
      stroke-linecap="round"
      stroke-linejoin="round"
    >
      <path stroke="none" d="M0 0h24v24H0z" fill="none"></path>
      <path
        d="M15 17.5c.32 .32 .754 .5 1.207 .5h.543c.69 0 1.25 -.56 1.25 -1.25v-.25a1.5 1.5 0 0 0 -1.5 -1.5a1.5 1.5 0 0 1 -1.5 -1.5v-.25c0 -.69 .56 -1.25 1.25 -1.25h.543c.453 0 .887 .18 1.207 .5"
      ></path>
      <path d="M9 12h4"></path>
      <path d="M11 12v6"></path>
      <path
        d="M21 19v-14a2 2 0 0 0 -2 -2h-14a2 2 0 0 0 -2 2v14a2 2 0 0 0 2 2h14a2 2 0 0 0 2 -2"
      ></path>
    </symbol>

    <symbol
      id="git-icon"
      viewBox="0 0 24 24"
      fill="none"
      stroke="currentColor"
      stroke-linecap="round"
      stroke-linejoin="round"
    >
      <path stroke="none" d="M0 0h24v24H0z" fill="none"></path>
      <path
        d="M15 12a1 1 0 1 0 2 0a1 1 0 1 0 -2 0"></path>
      <path
        d="M11 8a1 1 0 1 0 2 0a1 1 0 1 0 -2 0"></path>
      <path
        d="M11 16a1 1 0 1 0 2 0a1 1 0 1 0 -2 0"></path>
      <path d="M12 15v-6"></path>
      <path
        d="M15 11l-2 -2"></path>
      <path d="M11 7l-1.9 -1.9"></path>
      <path
        d="M13.446 2.6l7.955 7.954a2.045 2.045 0 0 1 0 2.892l-7.955 7.955a2.045 2.045 0 0 1 -2.892 0l-7.955 -7.955a2.045 2.045 0 0 1 0 -2.892l7.955 -7.955a2.045 2.045 0 0 1 2.892 0"
      ></path>
    </symbol>

    <symbol id="bitbucket-icon" viewBox="0 0 24 24" fill="none" stroke="currentColor"
      stroke-linecap="round" stroke-linejoin="round">
      <path stroke="none" d="M0 0h24v24H0z" fill="none" />
      <path
        d="M3.648 4a.64 .64 0 0 0 -.64 .744l3.14 14.528c.07 .417 .43 .724 .852 .728h10a.644 .644 0 0 0 .642 -.539l3.35 -14.71a.641 .641 0 0 0 -.64 -.744l-16.704 -.007" />
      <path d="M14 15h-4l-1 -6h6l-1 6" />
    </symbol>

    <symbol
      id="moon-icon"
      viewBox="0 0 24 24"
      fill="none"
      stroke="currentColor"
      stroke-linecap="round"
      stroke-linejoin="round"
    >
      <path stroke="none" d="M0 0h24v24H0z" fill="none" />
      <path
        d="M12 3c.132 0 .263 0 .393 0a7.5 7.5 0 0 0 7.92 12.446a9 9 0 1 1 -8.313 -12.454l0 .008"
      />
    </symbol>

    <symbol id="sun-icon" viewBox="0 0 24 24" fill="none" stroke="currentColor"
      stroke-linecap="round" stroke-linejoin="round">
      <path stroke="none" d="M0 0h24v24H0z" fill="none" />
      <path d="M8 12a4 4 0 1 0 8 0a4 4 0 1 0 -8 0" />
      <path
        d="M3 12h1m8 -9v1m8 8h1m-9 8v1m-6.4 -15.4l.7 .7m12.1 -.7l-.7 .7m0 11.4l.7 .7m-12.1 -.7l-.7 .7" />
    </symbol>

    <symbol
      id="version-icon"
      viewBox="0 0 24 24"
      fill="currentColor"
    >
      <path stroke="none" d="M0 0h24v24H0z" fill="none"></path>
      <path
        d="M12 3a3 3 0 0 1 2.616 4.47l3.274 3.742a3 3 0 1 1 -1.505 1.318l-3.275 -3.743l-.11 .042v6.342a3.001 3.001 0 1 1 -2 0v-6.342l-.111 -.041l-3.274 3.742a3 3 0 1 1 -1.505 -1.318l3.273 -3.742a3 3 0 0 1 2.617 -4.47"
      ></path>
    </symbol>

    <symbol
      id="down-icon"
      viewBox="0 0 24 24"
      fill="none"
      stroke="currentColor"
      stroke-linecap="round"
      stroke-linejoin="round"
    >
      <path stroke="none" d="M0 0h24v24H0z" fill="none" />
      <path d="M6 9l6 6l6 -6" />
    </symbol>

    <symbol id="development-icon" viewBox="0 0 24 24" fill="none" stroke="currentColor"
      stroke-linecap="round" stroke-linejoin="round">
      <path stroke="none" d="M0 0h24v24H0z" fill="none" />
      <path d="M19.5 7a9 9 0 0 0 -7.5 -4a8.991 8.991 0 0 0 -7.484 4" />
      <path d="M11.5 3a16.989 16.989 0 0 0 -1.826 4" />
      <path d="M12.5 3a16.989 16.989 0 0 1 1.828 4" />
      <path d="M19.5 17a9 9 0 0 1 -7.5 4a8.991 8.991 0 0 1 -7.484 -4" />
      <path d="M11.5 21a16.989 16.989 0 0 1 -1.826 -4" />
      <path d="M12.5 21a16.989 16.989 0 0 0 1.828 -4" />
      <path d="M2 10l1 4l1.5 -4l1.5 4l1 -4" />
      <path d="M17 10l1 4l1.5 -4l1.5 4l1 -4" />
      <path d="M9.5 10l1 4l1.5 -4l1.5 4l1 -4" />
    </symbol>

    <symbol id="frontend-icon" viewBox="0 0 24 24" fill="none" stroke="currentColor"
      stroke-linecap="round" stroke-linejoin="round">
      <path stroke="none" d="M0 0h24v24H0z" fill="none" />
      <path d="M12 4l-8 4l8 4l8 -4l-8 -4" fill="currentColor" />
      <path d="M8 14l-4 2l8 4l8 -4l-4 -2" />
      <path d="M8 10l-4 2l8 4l8 -4l-4 -2" />
    </symbol>

    <symbol id="maintenance-icon" viewBox="0 0 24 24" fill="none" stroke="currentColor"
      stroke-linecap="round" stroke-linejoin="round">
      <path stroke="none" d="M0 0h24v24H0z" fill="none" />
      <path d="M8 9h8" />
      <path d="M8 13h6" />
      <path
        d="M12.031 18.581l-4.031 2.419v-3h-2a3 3 0 0 1 -3 -3v-8a3 3 0 0 1 3 -3h12a3 3 0 0 1 3 3v5" />
      <path d="M17.001 19a2 2 0 1 0 4 0a2 2 0 1 0 -4 0" />
      <path d="M19.001 15.5v1.5" />
      <path d="M19.001 21v1.5" />
      <path d="M22.032 17.25l-1.299 .75" />
      <path d="M17.27 20l-1.3 .75" />
      <path d="M15.97 17.25l1.3 .75" />
      <path d="M20.733 20l1.3 .75" />
    </symbol>

    <symbol id="backend-icon" viewBox="0 0 24 24" fill="none" stroke="currentColor"
      stroke-linecap="round" stroke-linejoin="round">
      <path stroke="none" d="M0 0h24v24H0z" fill="none" />
      <path d="M3 7a3 3 0 0 1 3 -3h12a3 3 0 0 1 3 3v2a3 3 0 0 1 -3 3h-12a3 3 0 0 1 -3 -3v-2" />
      <path d="M12 20h-6a3 3 0 0 1 -3 -3v-2a3 3 0 0 1 3 -3h10.5" />
      <path d="M16 18a2 2 0 1 0 4 0a2 2 0 1 0 -4 0" />
      <path d="M18 14.5v1.5" />
      <path d="M18 20v1.5" />
      <path d="M21.032 16.25l-1.299 .75" />
      <path d="M16.27 19l-1.3 .75" />
      <path d="M14.97 16.25l1.3 .75" />
      <path d="M19.733 19l1.3 .75" />
      <path d="M7 8v.01" />
      <path d="M7 16v.01" />
    </symbol>

    <symbol id="phone-icon" viewBox="0 0 24 24" fill="none" stroke="currentColor"
      stroke-linecap="round" stroke-linejoin="round">
      <path stroke="none" d="M0 0h24v24H0z" fill="none" />
      <path
        d="M5 4h4l2 5l-2.5 1.5a11 11 0 0 0 5 5l1.5 -2.5l5 2v4a2 2 0 0 1 -2 2a16 16 0 0 1 -15 -15a2 2 0 0 1 2 -2" />
    </symbol>

    <symbol id="linkedin-icon" viewBox="0 0 24 24" fill="none" stroke="currentColor"
      stroke-linecap="round" stroke-linejoin="round">
      <path stroke="none" d="M0 0h24v24H0z" fill="none" />
      <path d="M8 11v5" />
      <path d="M8 8v.01" />
      <path d="M12 16v-5" />
      <path d="M16 16v-3a2 2 0 1 0 -4 0" />
      <path d="M3 7a4 4 0 0 1 4 -4h10a4 4 0 0 1 4 4v10a4 4 0 0 1 -4 4h-10a4 4 0 0 1 -4 -4l0 -10" />
    </symbol>
  </defs>
</svg>