<svg
  style="display: none;"
>
    <symbol id="web-development" viewBox="0 0 24 24">
      <path
        d="M12 2L2 7L12 12L22 7L12 2Z"
        stroke="currentColor"
        stroke-width="2"
        stroke-linecap="round"
        stroke-linejoin="round"
      ></path>
      <path
        d="M2 17L12 22L22 17"
        stroke="currentColor"
        stroke-width="2"
        stroke-linecap="round"
        stroke-linejoin="round"
      ></path>
      <path
        d="M2 12L12 17L22 12"
        stroke="currentColor"
        stroke-width="2"
        stroke-linecap="round"
        stroke-linejoin="round"
      ></path>
    </symbol>
    <symbol id="frontend" viewBox="0 0 24 24">
      <path
        d="M12 2L2 7L12 12L22 7L12 2Z"
        stroke="currentColor"
        stroke-width="2"
        stroke-linecap="round"
        stroke-linejoin="round"
      ></path>
      <path
        d="M2 17L12 22L22 17"
        stroke="currentColor"
        stroke-width="2"
        stroke-linecap="round"
        stroke-linejoin="round"
      ></path>
      <path
        d="M2 12L12 17L22 12"
        stroke="currentColor"
        stroke-width="2"
        stroke-linecap="round"
        stroke-linejoin="round"
      ></path>
    </symbol>
    <symbol id="maintenance" viewBox="0 0 24 24">
      <path
        d="M12 2L2 7L12 12L22 7L12 2Z"
        stroke="currentColor"
        stroke-width="2"
        stroke-linecap="round"
        stroke-linejoin="round"
      ></path>
      <path
        d="M2 17L12 22L22 17"
        stroke="currentColor"
        stroke-width="2"
        stroke-linecap="round"
        stroke-linejoin="round"
      ></path>
      <path
        d="M2 12L12 17L22 12"
        stroke="currentColor"
        stroke-width="2"
        stroke-linecap="round"
        stroke-linejoin="round"
      ></path>
    </symbol>
    <symbol id="backend" viewBox="0 0 24 24">
      <path
        d="M12 2L2 7L12 12L22 7L12 2Z"
        stroke="currentColor"
        stroke-width="2"
        stroke-linecap="round"
        stroke-linejoin="round"
      ></path>
      <path
        d="M2 17L12 22L22 17"
        stroke="currentColor"
        stroke-width="2"
        stroke-linecap="round"
        stroke-linejoin="round"
      ></path>
      <path
        d="M2 12L12 17L22 12"
        stroke="currentColor"
        stroke-width="2"
        stroke-linecap="round"
        stroke-linejoin="round"
      ></path>
    </symbol>
</svg>